<?xml version="1.0" encoding="utf-8"?>
<!-- Generator: Adobe Illustrator 16.2.1, SVG Export Plug-In . SVG Version: 6.00 Build 0)  -->
<!DOCTYPE svg PUBLIC "-//W3C//DTD SVG 1.1//EN" "http://www.w3.org/Graphics/SVG/1.1/DTD/svg11.dtd">
<svg version="1.1" id="Layer_1" xmlns="http://www.w3.org/2000/svg" xmlns:xlink="http://www.w3.org/1999/xlink" x="0px" y="0px"
	 width="80px" height="80px" viewBox="0 0 80 80" enable-background="new 0 0 80 80" xml:space="preserve">
<g>
	<g>
		<path fill="#FFFFFF" stroke="#000000" stroke-miterlimit="10" d="M68.5,46.436c0,0.588-0.477,1.064-1.064,1.064H39.564
			c-0.588,0-1.064-0.477-1.064-1.064V9.564c0-0.588,0.477-1.064,1.064-1.064h27.871c0.588,0,1.064,0.477,1.064,1.064V46.436z"/>
		<line fill="none" stroke="#000000" stroke-miterlimit="10" x1="42" y1="13.5" x2="56" y2="13.5"/>
		<line fill="none" stroke="#000000" stroke-miterlimit="10" x1="42" y1="18.5" x2="64" y2="18.5"/>
		<line fill="none" stroke="#000000" stroke-miterlimit="10" x1="42" y1="23.5" x2="56" y2="23.5"/>
		<line fill="none" stroke="#000000" stroke-miterlimit="10" x1="42" y1="28.5" x2="64" y2="28.5"/>
		<line fill="none" stroke="#000000" stroke-miterlimit="10" x1="42" y1="33.5" x2="61" y2="33.5"/>
		<line fill="none" stroke="#000000" stroke-miterlimit="10" x1="42" y1="38.5" x2="61" y2="38.5"/>
		<line fill="none" stroke="#000000" stroke-miterlimit="10" x1="42" y1="43.5" x2="55" y2="43.5"/>
	</g>
	<g>
		<path fill="#FFFFFF" stroke="#000000" stroke-miterlimit="10" d="M41.5,70.436c0,0.588-0.477,1.064-1.064,1.064H12.564
			c-0.588,0-1.064-0.477-1.064-1.064V33.564c0-0.588,0.477-1.064,1.064-1.064h27.871c0.588,0,1.064,0.477,1.064,1.064V70.436z"/>
		<line fill="none" stroke="#000000" stroke-miterlimit="10" x1="15" y1="37.5" x2="29" y2="37.5"/>
		<line fill="none" stroke="#000000" stroke-miterlimit="10" x1="15" y1="42.5" x2="37" y2="42.5"/>
		<line fill="none" stroke="#000000" stroke-miterlimit="10" x1="15" y1="47.5" x2="29" y2="47.5"/>
		<line fill="none" stroke="#000000" stroke-miterlimit="10" x1="15" y1="52.5" x2="37" y2="52.5"/>
		<line fill="none" stroke="#000000" stroke-miterlimit="10" x1="15" y1="57.5" x2="34" y2="57.5"/>
		<line fill="none" stroke="#000000" stroke-miterlimit="10" x1="15" y1="62.5" x2="34" y2="62.5"/>
		<line fill="none" stroke="#000000" stroke-miterlimit="10" x1="15" y1="67.5" x2="28" y2="67.5"/>
	</g>
</g>
</svg>
